<svg viewBox="0 0 101 44" fill="none" xmlns="http://www.w3.org/2000/svg">
	<rect x="0.405762" y="0.737366" width="100" height="25" fill="#2A3AF1" />
	<path d="M6.148 33.196H7.1L7.198 34.176H7.24C7.53867 33.8493 7.86067 33.5787 8.206 33.364C8.56067 33.14 8.94333 33.028 9.354 33.028C9.87667 33.028 10.2827 33.1447 10.572 33.378C10.8707 33.602 11.09 33.9193 11.23 34.33C11.5847 33.938 11.9393 33.6253 12.294 33.392C12.658 33.1493 13.05 33.028 13.47 33.028C14.17 33.028 14.688 33.252 15.024 33.7C15.3693 34.148 15.542 34.8107 15.542 35.688V40H14.394V35.842C14.394 35.198 14.2913 34.736 14.086 34.456C13.8807 34.1667 13.5633 34.022 13.134 34.022C12.6207 34.022 12.0513 34.372 11.426 35.072V40H10.278V35.842C10.278 35.198 10.1753 34.736 9.97 34.456C9.76467 34.1667 9.44267 34.022 9.004 34.022C8.49067 34.022 7.92133 34.372 7.296 35.072V40H6.148V33.196Z" fill="white" />
	<path d="M19.7434 40.168C19.0154 40.168 18.4834 39.944 18.1474 39.496C17.8208 39.048 17.6574 38.3853 17.6574 37.508V33.196H18.8194V37.354C18.8194 37.998 18.9174 38.4647 19.1134 38.754C19.3188 39.034 19.6454 39.174 20.0934 39.174C20.4481 39.174 20.7608 39.0853 21.0314 38.908C21.3021 38.7213 21.6008 38.4273 21.9274 38.026V33.196H23.0754V40H22.1234L22.0254 38.936H21.9834C21.6661 39.3093 21.3301 39.608 20.9754 39.832C20.6301 40.056 20.2194 40.168 19.7434 40.168Z" fill="white" />
	<path d="M26.5887 40.168C26.15 40.168 25.8373 40.0373 25.6507 39.776C25.464 39.5147 25.3707 39.132 25.3707 38.628V30.032H26.5187V38.712C26.5187 38.8987 26.5513 39.0293 26.6167 39.104C26.682 39.1787 26.7567 39.216 26.8407 39.216C26.878 39.216 26.9107 39.216 26.9387 39.216C26.976 39.216 27.0273 39.2067 27.0927 39.188L27.2467 40.056C27.172 40.0933 27.0833 40.1213 26.9807 40.14C26.878 40.1587 26.7473 40.168 26.5887 40.168Z" fill="white" />
	<path d="M31.081 40.168C30.717 40.168 30.409 40.112 30.157 40C29.9143 39.888 29.7137 39.734 29.555 39.538C29.4057 39.342 29.2983 39.104 29.233 38.824C29.1677 38.544 29.135 38.236 29.135 37.9V34.134H28.127V33.266L29.191 33.196L29.331 31.292H30.297V33.196H32.131V34.134H30.297V37.914C30.297 38.334 30.3717 38.6607 30.521 38.894C30.6797 39.118 30.955 39.23 31.347 39.23C31.4683 39.23 31.599 39.2113 31.739 39.174C31.879 39.1367 32.005 39.0947 32.117 39.048L32.341 39.916C32.1543 39.9813 31.949 40.0373 31.725 40.084C31.5103 40.14 31.2957 40.168 31.081 40.168Z" fill="white" />
	<path d="M33.6695 33.196H34.8175V40H33.6695V33.196ZM34.2575 31.796C34.0335 31.796 33.8421 31.726 33.6835 31.586C33.5341 31.446 33.4595 31.2687 33.4595 31.054C33.4595 30.83 33.5341 30.6527 33.6835 30.522C33.8421 30.382 34.0335 30.312 34.2575 30.312C34.4815 30.312 34.6681 30.382 34.8175 30.522C34.9761 30.6527 35.0555 30.83 35.0555 31.054C35.0555 31.2687 34.9761 31.446 34.8175 31.586C34.6681 31.726 34.4815 31.796 34.2575 31.796Z" fill="white" />
	<path d="M36.5408 36.052H39.7608V36.934H36.5408V36.052Z" fill="white" />
	<path d="M40.7625 43.038C40.5478 43.038 40.3565 43.0193 40.1885 42.982C40.0205 42.9447 39.8758 42.9027 39.7545 42.856L39.9925 41.988C40.0765 42.016 40.1745 42.0393 40.2865 42.058C40.3985 42.086 40.5151 42.1 40.6365 42.1C40.9725 42.1 41.1965 41.9833 41.3085 41.75C41.4205 41.5167 41.4765 41.19 41.4765 40.77V33.196H42.6245V40.77C42.6245 41.4607 42.4845 42.0113 42.2045 42.422C41.9245 42.8327 41.4438 43.038 40.7625 43.038ZM42.0645 31.796C41.8405 31.796 41.6491 31.726 41.4905 31.586C41.3411 31.446 41.2665 31.2687 41.2665 31.054C41.2665 30.83 41.3411 30.6527 41.4905 30.522C41.6491 30.382 41.8405 30.312 42.0645 30.312C42.2791 30.312 42.4611 30.382 42.6105 30.522C42.7691 30.6527 42.8485 30.83 42.8485 31.054C42.8485 31.2687 42.7691 31.446 42.6105 31.586C42.4611 31.726 42.2791 31.796 42.0645 31.796Z" fill="white" />
	<path d="M47.5674 40.168C47.1474 40.168 46.7461 40.0887 46.3634 39.93C45.9901 39.7713 45.6588 39.5427 45.3694 39.244C45.0801 38.936 44.8468 38.5627 44.6694 38.124C44.5014 37.676 44.4174 37.172 44.4174 36.612C44.4174 36.0427 44.5014 35.5387 44.6694 35.1C44.8468 34.652 45.0801 34.274 45.3694 33.966C45.6588 33.658 45.9901 33.4247 46.3634 33.266C46.7461 33.1073 47.1474 33.028 47.5674 33.028C47.9874 33.028 48.3841 33.1073 48.7574 33.266C49.1401 33.4247 49.4761 33.658 49.7654 33.966C50.0548 34.274 50.2834 34.652 50.4514 35.1C50.6288 35.5387 50.7174 36.0427 50.7174 36.612C50.7174 37.172 50.6288 37.676 50.4514 38.124C50.2834 38.5627 50.0548 38.936 49.7654 39.244C49.4761 39.5427 49.1401 39.7713 48.7574 39.93C48.3841 40.0887 47.9874 40.168 47.5674 40.168ZM47.5674 39.216C47.8568 39.216 48.1228 39.1553 48.3654 39.034C48.6081 38.9033 48.8134 38.726 48.9814 38.502C49.1588 38.2687 49.2941 37.9933 49.3874 37.676C49.4808 37.3587 49.5274 37.004 49.5274 36.612C49.5274 36.22 49.4808 35.8653 49.3874 35.548C49.2941 35.2213 49.1588 34.9413 48.9814 34.708C48.8134 34.4747 48.6081 34.2973 48.3654 34.176C48.1228 34.0453 47.8568 33.98 47.5674 33.98C47.2781 33.98 47.0121 34.0453 46.7694 34.176C46.5268 34.2973 46.3168 34.4747 46.1394 34.708C45.9714 34.9413 45.8408 35.2213 45.7474 35.548C45.6541 35.8653 45.6074 36.22 45.6074 36.612C45.6074 37.004 45.6541 37.3587 45.7474 37.676C45.8408 37.9933 45.9714 38.2687 46.1394 38.502C46.3168 38.726 46.5268 38.9033 46.7694 39.034C47.0121 39.1553 47.2781 39.216 47.5674 39.216Z" fill="white" />
	<path d="M54.4973 40.168C53.7693 40.168 53.2373 39.944 52.9013 39.496C52.5747 39.048 52.4113 38.3853 52.4113 37.508V33.196H53.5733V37.354C53.5733 37.998 53.6713 38.4647 53.8673 38.754C54.0727 39.034 54.3993 39.174 54.8473 39.174C55.202 39.174 55.5147 39.0853 55.7853 38.908C56.056 38.7213 56.3547 38.4273 56.6813 38.026V33.196H57.8293V40H56.8773L56.7793 38.936H56.7373C56.42 39.3093 56.084 39.608 55.7293 39.832C55.384 40.056 54.9733 40.168 54.4973 40.168Z" fill="white" />
	<path d="M62.8826 40.168C62.4252 40.168 61.9959 40.0887 61.5946 39.93C61.2026 39.762 60.8572 39.5287 60.5586 39.23C60.2692 38.922 60.0406 38.5487 59.8726 38.11C59.7046 37.6713 59.6206 37.172 59.6206 36.612C59.6206 36.052 59.7046 35.5527 59.8726 35.114C60.0499 34.666 60.2786 34.288 60.5586 33.98C60.8479 33.672 61.1746 33.4387 61.5386 33.28C61.9026 33.112 62.2806 33.028 62.6726 33.028C63.1019 33.028 63.4846 33.1027 63.8206 33.252C64.1659 33.4013 64.4506 33.616 64.6746 33.896C64.9079 34.176 65.0852 34.512 65.2066 34.904C65.3279 35.296 65.3886 35.7347 65.3886 36.22C65.3886 36.3413 65.3839 36.4627 65.3746 36.584C65.3746 36.696 65.3652 36.794 65.3466 36.878H60.7546C60.8012 37.606 61.0252 38.1847 61.4266 38.614C61.8372 39.034 62.3692 39.244 63.0226 39.244C63.3492 39.244 63.6479 39.1973 63.9186 39.104C64.1986 39.0013 64.4646 38.8707 64.7166 38.712L65.1226 39.468C64.8239 39.6547 64.4926 39.818 64.1286 39.958C63.7646 40.098 63.3492 40.168 62.8826 40.168ZM64.3806 36.052C64.3806 35.3613 64.2312 34.8387 63.9326 34.484C63.6432 34.12 63.2326 33.938 62.7006 33.938C62.4579 33.938 62.2246 33.9847 62.0006 34.078C61.7859 34.1713 61.5899 34.3113 61.4126 34.498C61.2352 34.6753 61.0859 34.8947 60.9646 35.156C60.8526 35.4173 60.7779 35.716 60.7406 36.052H64.3806Z" fill="white" />
	<path d="M69.0579 40.168C68.3299 40.168 67.7979 39.944 67.4619 39.496C67.1352 39.048 66.9719 38.3853 66.9719 37.508V33.196H68.1339V37.354C68.1339 37.998 68.2319 38.4647 68.4279 38.754C68.6332 39.034 68.9599 39.174 69.4079 39.174C69.7625 39.174 70.0752 39.0853 70.3459 38.908C70.6165 38.7213 70.9152 38.4273 71.2419 38.026V33.196H72.3899V40H71.4379L71.3399 38.936H71.2979C70.9805 39.3093 70.6445 39.608 70.2899 39.832C69.9445 40.056 69.5339 40.168 69.0579 40.168Z" fill="white" />
	<path d="M74.6851 33.196H75.6371L75.7351 34.428H75.7771C76.0104 33.9987 76.2904 33.658 76.6171 33.406C76.9531 33.154 77.3171 33.028 77.7091 33.028C77.9798 33.028 78.2224 33.0747 78.4371 33.168L78.2131 34.176C78.1011 34.1387 77.9984 34.1107 77.9051 34.092C77.8118 34.0733 77.6951 34.064 77.5551 34.064C77.2658 34.064 76.9624 34.1807 76.6451 34.414C76.3371 34.6473 76.0664 35.0533 75.8331 35.632V40H74.6851V33.196Z" fill="white" />
	<path d="M7.856 10.608H5.35V8.87201H12.434V10.608H9.928V18H7.856V10.608Z" fill="white" />
	<path d="M15.6049 18.168C15.1662 18.168 14.7416 18.0887 14.3309 17.93C13.9202 17.762 13.5562 17.524 13.2389 17.216C12.9309 16.908 12.6836 16.53 12.4969 16.082C12.3102 15.6247 12.2169 15.1067 12.2169 14.528C12.2169 13.9493 12.3102 13.436 12.4969 12.988C12.6836 12.5307 12.9309 12.148 13.2389 11.84C13.5562 11.532 13.9202 11.2987 14.3309 11.14C14.7416 10.972 15.1662 10.888 15.6049 10.888C16.0436 10.888 16.4636 10.972 16.8649 11.14C17.2756 11.2987 17.6349 11.532 17.9429 11.84C18.2602 12.148 18.5122 12.5307 18.6989 12.988C18.8856 13.436 18.9789 13.9493 18.9789 14.528C18.9789 15.1067 18.8856 15.6247 18.6989 16.082C18.5122 16.53 18.2602 16.908 17.9429 17.216C17.6349 17.524 17.2756 17.762 16.8649 17.93C16.4636 18.0887 16.0436 18.168 15.6049 18.168Z" fill="white" />
	<path d="M19.7051 11.056H21.7491L22.4211 14.276C22.4771 14.6213 22.5285 14.962 22.5751 15.298C22.6218 15.634 22.6731 15.9793 22.7291 16.334H22.7851C22.8505 15.9793 22.9111 15.6293 22.9671 15.284C23.0325 14.9387 23.1071 14.6027 23.1911 14.276L23.9611 11.056H25.7391L26.5231 14.276C26.6071 14.6213 26.6818 14.962 26.7471 15.298C26.8125 15.634 26.8825 15.9793 26.9571 16.334H27.0131C27.0785 15.9793 27.1298 15.634 27.1671 15.298C27.2138 14.962 27.2698 14.6213 27.3351 14.276L27.9931 11.056H29.8971L28.2311 18H25.8231L25.1931 15.228C25.1185 14.9013 25.0531 14.5747 24.9971 14.248C24.9411 13.9213 24.8805 13.5713 24.8151 13.198H24.7591C24.6938 13.5713 24.6331 13.9213 24.5771 14.248C24.5305 14.5747 24.4745 14.9013 24.4091 15.228L23.7931 18H21.4411L19.7051 11.056Z" fill="white" />
	<path d="M34.1469 18.168C33.6522 18.168 33.1902 18.0887 32.7609 17.93C32.3316 17.762 31.9582 17.524 31.6409 17.216C31.3236 16.8987 31.0762 16.516 30.8989 16.068C30.7216 15.62 30.6329 15.1067 30.6329 14.528C30.6329 13.968 30.7262 13.464 30.9129 13.016C31.0996 12.5587 31.3422 12.176 31.6409 11.868C31.9489 11.5507 32.2989 11.308 32.6909 11.14C33.0829 10.972 33.4889 10.888 33.9089 10.888C34.4036 10.888 34.8329 10.972 35.1969 11.14C35.5702 11.308 35.8782 11.5413 36.1209 11.84C36.3729 12.1387 36.5596 12.4933 36.6809 12.904C36.8022 13.3053 36.8629 13.744 36.8629 14.22C36.8629 14.4067 36.8536 14.584 36.8349 14.752C36.8162 14.92 36.7976 15.046 36.7789 15.13H32.6209C32.7142 15.634 32.9196 16.0073 33.2369 16.25C33.5636 16.4833 33.9602 16.6 34.4269 16.6C34.9216 16.6 35.4209 16.446 35.9249 16.138L36.6109 17.384C36.2562 17.6267 35.8596 17.818 35.4209 17.958C34.9916 18.098 34.5669 18.168 34.1469 18.168ZM35.1129 13.772C35.1129 13.38 35.0242 13.0627 34.8469 12.82C34.6696 12.5773 34.3709 12.456 33.9509 12.456C33.6242 12.456 33.3349 12.5633 33.0829 12.778C32.8402 12.9927 32.6816 13.324 32.6069 13.772H35.1129Z" fill="white" />
	<path d="M38.285 11.056H39.965L40.105 12.274H40.161C40.413 11.798 40.7163 11.448 41.071 11.224C41.4257 11 41.7803 10.888 42.135 10.888C42.331 10.888 42.4897 10.902 42.611 10.93C42.7417 10.9487 42.8583 10.9813 42.961 11.028L42.625 12.806C42.4943 12.7687 42.373 12.7407 42.261 12.722C42.149 12.7033 42.0183 12.694 41.869 12.694C41.6077 12.694 41.3323 12.7873 41.043 12.974C40.763 13.1607 40.5297 13.492 40.343 13.968V18H38.285V11.056Z" fill="white" />
	<path d="M46.8339 8.87201H49.4099C50.1099 8.87201 50.7399 8.96067 51.2999 9.13801C51.8599 9.31534 52.3405 9.59067 52.7419 9.96401C53.1432 10.328 53.4512 10.7947 53.6659 11.364C53.8805 11.9333 53.9879 12.61 53.9879 13.394C53.9879 14.178 53.8805 14.8593 53.6659 15.438C53.4512 16.0167 53.1479 16.4973 52.7559 16.88C52.3639 17.2533 51.8925 17.5333 51.3419 17.72C50.8005 17.9067 50.1939 18 49.5219 18H46.8339V8.87201ZM49.2839 16.334C49.6759 16.334 50.0305 16.2827 50.3479 16.18C50.6652 16.0773 50.9359 15.914 51.1599 15.69C51.3839 15.4567 51.5565 15.1533 51.6779 14.78C51.8085 14.4067 51.8739 13.9447 51.8739 13.394C51.8739 12.8527 51.8085 12.4 51.6779 12.036C51.5565 11.6627 51.3839 11.3687 51.1599 11.154C50.9359 10.93 50.6652 10.7713 50.3479 10.678C50.0305 10.5847 49.6759 10.538 49.2839 10.538H48.8919V16.334H49.2839Z" fill="white" />
	<path d="M58.6606 18.168C58.1659 18.168 57.7039 18.0887 57.2746 17.93C56.8452 17.762 56.4719 17.524 56.1546 17.216C55.8372 16.8987 55.5899 16.516 55.4126 16.068C55.2352 15.62 55.1466 15.1067 55.1466 14.528C55.1466 13.968 55.2399 13.464 55.4266 13.016C55.6132 12.5587 55.8559 12.176 56.1546 11.868C56.4626 11.5507 56.8126 11.308 57.2046 11.14C57.5966 10.972 58.0026 10.888 58.4226 10.888C58.9172 10.888 59.3466 10.972 59.7106 11.14C60.0839 11.308 60.3919 11.5413 60.6346 11.84C60.8866 12.1387 61.0732 12.4933 61.1946 12.904C61.3159 13.3053 61.3766 13.744 61.3766 14.22C61.3766 14.4067 61.3672 14.584 61.3486 14.752C61.3299 14.92 61.3112 15.046 61.2926 15.13H57.1346C57.2279 15.634 57.4332 16.0073 57.7506 16.25C58.0772 16.4833 58.4739 16.6 58.9406 16.6C59.4352 16.6 59.9346 16.446 60.4386 16.138L61.1246 17.384C60.7699 17.6267 60.3732 17.818 59.9346 17.958C59.5052 18.098 59.0806 18.168 58.6606 18.168ZM59.6266 13.772C59.6266 13.38 59.5379 13.0627 59.3606 12.82C59.1832 12.5773 58.8846 12.456 58.4646 12.456C58.1379 12.456 57.8486 12.5633 57.5966 12.778C57.3539 12.9927 57.1952 13.324 57.1206 13.772H59.6266Z" fill="white" />
	<path d="M66.6503 9.78201C66.389 9.68867 66.151 9.64201 65.9363 9.64201C65.6843 9.64201 65.4883 9.72134 65.3483 9.88001C65.2083 10.0293 65.1383 10.2813 65.1383 10.636V11.056H66.3843V12.666H65.1383V18H63.0803V12.666H62.1563V11.14L63.0803 11.07V10.692C63.0803 10.328 63.1223 9.98267 63.2063 9.65601C63.2996 9.32934 63.449 9.04467 63.6543 8.80201C63.8596 8.55934 64.1256 8.36801 64.4523 8.22801C64.779 8.08801 65.1756 8.01801 65.6423 8.01801C65.9316 8.01801 66.193 8.04601 66.4263 8.10201C66.669 8.15801 66.8696 8.21401 67.0283 8.27001L66.6503 9.78201Z" fill="white" />
	<path d="M70.4731 18.168C69.9784 18.168 69.5164 18.0887 69.0871 17.93C68.6577 17.762 68.2844 17.524 67.9671 17.216C67.6497 16.8987 67.4024 16.516 67.2251 16.068C67.0477 15.62 66.9591 15.1067 66.9591 14.528C66.9591 13.968 67.0524 13.464 67.2391 13.016C67.4257 12.5587 67.6684 12.176 67.9671 11.868C68.2751 11.5507 68.6251 11.308 69.0171 11.14C69.4091 10.972 69.8151 10.888 70.2351 10.888C70.7297 10.888 71.1591 10.972 71.5231 11.14C71.8964 11.308 72.2044 11.5413 72.4471 11.84C72.6991 12.1387 72.8857 12.4933 73.0071 12.904C73.1284 13.3053 73.1891 13.744 73.1891 14.22C73.1891 14.4067 73.1797 14.584 73.1611 14.752C73.1424 14.92 73.1237 15.046 73.1051 15.13H68.9471C69.0404 15.634 69.2457 16.0073 69.5631 16.25C69.8897 16.4833 70.2864 16.6 70.7531 16.6C71.2477 16.6 71.7471 16.446 72.2511 16.138L72.9371 17.384C72.5824 17.6267 72.1857 17.818 71.7471 17.958C71.3177 18.098 70.8931 18.168 70.4731 18.168ZM71.4391 13.772C71.4391 13.38 71.3504 13.0627 71.1731 12.82C70.9957 12.5773 70.6971 12.456 70.2771 12.456C69.9504 12.456 69.6611 12.5633 69.4091 12.778C69.1664 12.9927 69.0077 13.324 68.9331 13.772H71.4391Z" fill="white" />
	<path d="M74.6112 11.056H76.2912L76.4312 11.938H76.4872C76.7858 11.658 77.1125 11.4153 77.4672 11.21C77.8218 10.9953 78.2372 10.888 78.7132 10.888C79.4692 10.888 80.0152 11.1353 80.3512 11.63C80.6965 12.1247 80.8692 12.8107 80.8692 13.688V18H78.8112V13.954C78.8112 13.45 78.7412 13.1047 78.6012 12.918C78.4705 12.7313 78.2558 12.638 77.9572 12.638C77.6958 12.638 77.4718 12.6987 77.2852 12.82C77.0985 12.932 76.8932 13.0953 76.6692 13.31V18H74.6112V11.056Z" fill="white" />
	<path d="M84.6669 18.168C84.2096 18.168 83.7382 18.0793 83.2529 17.902C82.7769 17.7247 82.3616 17.4913 82.0069 17.202L82.9309 15.914C83.2482 16.1567 83.5516 16.3387 83.8409 16.46C84.1302 16.5813 84.4242 16.642 84.7229 16.642C85.0309 16.642 85.2549 16.5907 85.3949 16.488C85.5349 16.3853 85.6049 16.2407 85.6049 16.054C85.6049 15.942 85.5629 15.844 85.4789 15.76C85.4042 15.6667 85.2969 15.5827 85.1569 15.508C85.0262 15.4333 84.8769 15.368 84.7089 15.312C84.5409 15.2467 84.3682 15.1767 84.1909 15.102C83.9762 15.018 83.7616 14.92 83.5469 14.808C83.3322 14.696 83.1362 14.5607 82.9589 14.402C82.7816 14.234 82.6369 14.0427 82.5249 13.828C82.4129 13.604 82.3569 13.3473 82.3569 13.058C82.3569 12.7407 82.4176 12.4467 82.5389 12.176C82.6696 11.9053 82.8516 11.6767 83.0849 11.49C83.3182 11.3033 83.5982 11.1587 83.9249 11.056C84.2516 10.944 84.6156 10.888 85.0169 10.888C85.5489 10.888 86.0156 10.9813 86.4169 11.168C86.8182 11.3453 87.1682 11.546 87.4669 11.77L86.5429 13.002C86.2909 12.8153 86.0436 12.6707 85.8009 12.568C85.5582 12.4653 85.3156 12.414 85.0729 12.414C84.5502 12.414 84.2889 12.596 84.2889 12.96C84.2889 13.072 84.3262 13.17 84.4009 13.254C84.4756 13.3287 84.5736 13.3987 84.6949 13.464C84.8256 13.5293 84.9702 13.5947 85.1289 13.66C85.2969 13.716 85.4696 13.7767 85.6469 13.842C85.8709 13.926 86.0902 14.024 86.3049 14.136C86.5289 14.2387 86.7296 14.3693 86.9069 14.528C87.0936 14.6867 87.2429 14.8827 87.3549 15.116C87.4669 15.34 87.5229 15.6107 87.5229 15.928C87.5229 16.2453 87.4622 16.5393 87.3409 16.81C87.2196 17.0807 87.0376 17.3187 86.7949 17.524C86.5522 17.72 86.2536 17.8787 85.8989 18C85.5442 18.112 85.1336 18.168 84.6669 18.168Z" fill="white" />
	<path d="M91.9379 18.168C91.4433 18.168 90.9813 18.0887 90.5519 17.93C90.1226 17.762 89.7493 17.524 89.4319 17.216C89.1146 16.8987 88.8673 16.516 88.6899 16.068C88.5126 15.62 88.4239 15.1067 88.4239 14.528C88.4239 13.968 88.5173 13.464 88.7039 13.016C88.8906 12.5587 89.1333 12.176 89.4319 11.868C89.7399 11.5507 90.0899 11.308 90.4819 11.14C90.8739 10.972 91.2799 10.888 91.6999 10.888C92.1946 10.888 92.6239 10.972 92.9879 11.14C93.3613 11.308 93.6693 11.5413 93.9119 11.84C94.1639 12.1387 94.3506 12.4933 94.4719 12.904C94.5933 13.3053 94.6539 13.744 94.6539 14.22C94.6539 14.4067 94.6446 14.584 94.6259 14.752C94.6073 14.92 94.5886 15.046 94.5699 15.13H90.4119C90.5053 15.634 90.7106 16.0073 91.0279 16.25C91.3546 16.4833 91.7513 16.6 92.2179 16.6C92.7126 16.6 93.2119 16.446 93.7159 16.138L94.4019 17.384C94.0473 17.6267 93.6506 17.818 93.2119 17.958C92.7826 18.098 92.3579 18.168 91.9379 18.168ZM92.9039 13.772C92.9039 13.38 92.8153 13.0627 92.6379 12.82C92.4606 12.5773 92.1619 12.456 91.7419 12.456C91.4153 12.456 91.1259 12.5633 90.8739 12.778C90.6313 12.9927 90.4726 13.324 90.3979 13.772H92.9039Z" fill="white" />
</svg>
